# Blender v3.2.0 OBJ File: 'newest.blend'
# www.blender.org
mtllib atap.mtl
o node_id8_mesh_id9.002_node_id8_mesh_id9.003
v 40.726032 6.803596 1.449133
v 29.660973 6.803595 9.211376
v 41.063389 6.803595 9.211376
v 26.073969 6.803597 -5.152617
v 26.136190 6.803596 6.237158
v 34.044395 6.803597 -5.152617
v 41.063389 6.078241 9.211376
v 29.660973 6.078241 9.211376
v 40.726032 6.078243 1.449133
v 26.136190 6.078242 6.237158
v 26.073969 6.078244 -5.152617
v 34.044395 6.078244 -5.152617
v 41.063389 6.803595 9.211376
v 29.660973 6.078241 9.211376
v 41.063389 6.078241 9.211376
v 29.660973 6.803595 9.211376
v 26.136190 6.078242 6.237158
v 26.136190 6.803596 6.237158
v 26.073969 6.078244 -5.152617
v 26.073969 6.803597 -5.152617
v 26.073969 6.803597 -5.152617
v 34.044395 6.078244 -5.152617
v 26.073969 6.078244 -5.152617
v 34.044395 6.803597 -5.152617
v 40.726032 6.078243 1.449133
v 40.726032 6.803596 1.449133
v 41.063389 6.078241 9.211376
v 41.063389 6.803595 9.211376
vt 0.353133 0.212458
vt 0.651613 0.012485
vt 0.353133 0.000052
vt 0.729165 0.408772
vt 0.740494 0.097574
vt 0.520524 0.400081
vt 0.168266 0.488147
vt 0.123007 0.765452
vt 0.375843 0.474995
vt 0.197603 0.867833
vt 0.522619 0.855370
vt 0.573701 0.677530
vt 0.010877 0.421531
vt 0.123007 0.765452
vt 0.168266 0.488147
vt 0.000038 0.850549
vt 0.197603 0.867833
vt 0.144748 0.999958
vt 0.522619 0.855370
vt 0.640623 0.965271
vt 0.640623 0.965271
vt 0.573701 0.677530
vt 0.522619 0.855370
vt 0.740648 0.617914
vt 0.375843 0.474995
vt 0.391893 0.282394
vt 0.168266 0.488147
vt 0.010877 0.421531
vn 0.0000 1.0000 0.0000
vn 0.0000 -1.0000 -0.0000
vn 0.0000 0.0000 1.0000
vn -0.3441 0.0000 0.9389
vn -0.3443 0.0000 0.9389
vn -0.9064 0.0000 0.4224
vn -1.0000 0.0000 0.0055
vn 0.0000 0.0000 -1.0000
vn 0.3812 -0.0000 -0.9245
vn 0.9146 -0.0000 -0.4044
vn 0.9991 0.0000 -0.0434
usemtl 772.003
s off
f 1/1/1 2/2/1 3/3/1
f 2/2/1 4/4/1 5/5/1
f 4/4/1 1/1/1 6/6/1
f 4/4/1 2/2/1 1/1/1
f 7/7/2 8/8/2 9/9/2
f 10/10/2 11/11/2 8/8/2
f 12/12/2 9/9/2 11/11/2
f 9/9/2 8/8/2 11/11/2
s 1
f 13/13/3 14/14/4 15/15/3
f 13/13/3 16/16/5 14/14/4
f 16/16/5 17/17/6 14/14/4
f 16/16/5 18/18/6 17/17/6
f 18/18/6 19/19/7 17/17/6
f 18/18/6 20/20/7 19/19/7
f 21/21/8 22/22/9 23/23/8
f 21/21/8 24/24/9 22/22/9
f 24/24/9 25/25/10 22/22/9
f 24/24/9 26/26/10 25/25/10
f 26/26/10 27/27/11 25/25/10
f 26/26/10 28/28/11 27/27/11
o mesh_id195.001_mesh_id195.001_mesh_id195.001_mesh_id195.005
v 26.470964 6.200339 1.832484
v 15.038660 5.964652 1.832483
v 15.038660 6.200339 1.832483
v 26.470964 5.964652 1.832484
v 15.038660 6.200336 5.113707
v 26.470964 5.964649 5.113708
v 26.470964 6.200336 5.113708
v 15.038660 5.964649 5.113707
v 26.470964 6.200336 5.113708
v 26.470964 5.964652 1.832484
v 26.470964 6.200339 1.832484
v 26.470964 5.964649 5.113708
v 15.038660 6.200339 1.832483
v 15.038660 5.964649 5.113707
v 15.038660 6.200336 5.113707
v 15.038660 5.964652 1.832483
v 15.038660 6.200339 1.832483
v 26.470964 6.200336 5.113708
v 26.470964 6.200339 1.832484
v 15.038660 6.200336 5.113707
v 15.038660 5.964649 5.113707
v 26.470964 5.964652 1.832484
v 26.470964 5.964649 5.113708
v 15.038660 5.964652 1.832483
vt 0.254811 0.346384
vt 0.254811 0.346384
vt 0.254811 0.346384
vt 0.254811 0.346384
vt 0.254811 0.346384
vt 0.254811 0.346384
vt 0.254811 0.346384
vt 0.254811 0.346384
vt 0.254811 0.346384
vt 0.254811 0.346384
vt 0.254811 0.346384
vt 0.254811 0.346384
vt 0.254811 0.346384
vt 0.254811 0.346384
vt 0.254811 0.346384
vt 0.254811 0.346384
vt 0.254811 0.346384
vt 0.254811 0.346384
vt 0.254811 0.346384
vt 0.254811 0.346384
vt 0.254811 0.346384
vt 0.254811 0.346384
vt 0.254811 0.346384
vt 0.254811 0.346384
vn 0.0000 0.0000 -1.0000
vn -0.0000 0.0000 1.0000
vn 1.0000 0.0000 0.0000
vn -1.0000 0.0000 0.0000
vn -0.0000 1.0000 0.0000
vn 0.0000 -1.0000 -0.0000
usemtl 477.005
s off
f 29/29/12 30/30/12 31/31/12
f 29/29/12 32/32/12 30/30/12
f 33/33/13 34/34/13 35/35/13
f 33/33/13 36/36/13 34/34/13
f 37/37/14 38/38/14 39/39/14
f 37/37/14 40/40/14 38/38/14
f 41/41/15 42/42/15 43/43/15
f 41/41/15 44/44/15 42/42/15
f 45/45/16 46/46/16 47/47/16
f 45/45/16 48/48/16 46/46/16
f 49/49/17 50/50/17 51/51/17
f 49/49/17 52/52/17 50/50/17
o mesh_id55.002_mesh_id55.001_mesh_id55.002_mesh_id55.002
v 1.896291 7.251033 0.007515
v 11.718246 7.251033 -2.110177
v 4.150959 7.251033 -2.201691
v 15.132195 7.251024 6.726646
v 15.132195 7.251033 0.976991
v 4.826446 7.251015 9.512106
v 12.072723 7.251015 9.542134
v 1.896291 7.251024 6.696620
v 4.150959 5.982871 -2.201692
v 11.718246 5.982871 -2.110178
v 1.896291 5.982867 0.007513
v 15.132195 5.982867 0.976991
v 15.132195 5.982860 6.726645
v 12.072723 5.982854 9.542133
v 4.826446 5.982854 9.512105
v 1.896291 5.982860 6.696619
v 4.150959 7.251033 -2.201691
v 11.718246 5.982871 -2.110178
v 4.150959 5.982871 -2.201692
v 11.718246 7.251033 -2.110177
v 15.132195 5.982867 0.976991
v 15.132195 7.251033 0.976991
v 15.132195 5.982860 6.726645
v 15.132195 7.251024 6.726646
v 12.072723 5.982854 9.542133
v 12.072723 7.251015 9.542134
v 4.826446 5.982854 9.512105
v 4.826446 7.251015 9.512106
v 1.896291 5.982860 6.696619
v 1.896291 7.251024 6.696620
v 1.896291 5.982867 0.007513
v 1.896291 7.251033 0.007515
vt 0.077680 0.999913
vt 0.000166 0.726348
vt 0.005296 0.939175
vt 0.276509 0.619813
vt 0.094350 0.626689
vt 0.375693 0.906179
vt 0.368955 0.702448
vt 0.289602 0.991913
vt 0.791041 0.492700
vt 0.575560 0.414291
vt 0.826793 0.594823
vt 0.485326 0.513667
vt 0.482536 0.716117
vt 0.551902 0.821909
vt 0.721356 0.864526
vt 0.794006 0.802117
vt 0.892931 0.294352
vt 0.575560 0.414291
vt 0.791041 0.492700
vt 0.485596 0.267097
vt 0.485326 0.513667
vt 0.325443 0.469737
vt 0.482536 0.716117
vt 0.394144 0.810733
vt 0.551902 0.821909
vt 0.497719 0.999831
vt 0.721356 0.864526
vt 0.855840 0.977441
vt 0.794006 0.802117
vt 0.992865 0.823299
vt 0.826793 0.594823
vt 0.999876 0.444353
vn 0.0000 1.0000 0.0000
vn 0.0000 -1.0000 -0.0000
vn -0.3788 0.0000 -0.9255
vn 0.3705 -0.0000 -0.9288
vn -0.3789 0.0000 -0.9254
vn 0.9165 0.0000 -0.4001
vn 0.9164 0.0000 -0.4002
vn 0.9181 -0.0000 0.3964
vn 0.9181 0.0000 0.3963
vn 0.3673 -0.0000 0.9301
vn -0.3815 -0.0000 0.9244
vn -0.3816 -0.0000 0.9243
vn -0.9221 -0.0000 0.3868
vn -0.9222 -0.0000 0.3868
vn -0.9240 0.0000 -0.3825
vn -0.9240 -0.0000 -0.3824
usemtl 1183.002
s off
f 53/53/18 54/54/18 55/55/18
f 54/54/18 56/56/18 57/57/18
f 56/56/18 58/58/18 59/59/18
f 58/58/18 53/53/18 60/60/18
f 53/53/18 56/56/18 54/54/18
f 53/53/18 58/58/18 56/56/18
f 61/61/19 62/62/19 63/63/19
f 64/64/19 65/65/19 62/62/19
f 66/66/19 67/67/19 65/65/19
f 68/68/19 63/63/19 67/67/19
f 62/62/19 65/65/19 63/63/19
f 65/65/19 67/67/19 63/63/19
s 1
f 69/69/20 70/70/21 71/71/22
f 69/69/20 72/72/21 70/70/21
f 72/72/21 73/73/23 70/70/21
f 72/72/21 74/74/24 73/73/23
f 74/74/24 75/75/25 73/73/23
f 74/74/24 76/76/26 75/75/25
f 76/76/26 77/77/27 75/75/25
f 76/76/26 78/78/27 77/77/27
f 78/78/27 79/79/28 77/77/27
f 78/78/27 80/80/29 79/79/28
f 80/80/29 81/81/30 79/79/28
f 80/80/29 82/82/31 81/81/30
f 82/82/31 83/83/32 81/81/30
f 82/82/31 84/84/33 83/83/32
f 84/84/33 71/71/22 83/83/32
f 84/84/33 69/69/20 71/71/22
o mesh_id485.001_mesh_id485.001
v -3.999810 6.243593 2.016339
v -3.999810 6.011897 4.965568
v -3.999810 6.243593 4.965569
v -3.999810 6.011899 2.016339
v 2.048917 6.243593 4.965568
v 2.048916 6.011899 2.016337
v 2.048916 6.243593 2.016337
v 2.048917 6.011897 4.965568
v 2.048916 6.243593 2.016337
v -3.999810 6.011899 2.016339
v -3.999810 6.243593 2.016339
v 2.048916 6.011899 2.016337
v -3.999810 6.243593 4.965569
v 2.048917 6.011897 4.965568
v 2.048917 6.243593 4.965568
v -3.999810 6.011897 4.965568
v -3.999810 6.243593 4.965569
v 2.048916 6.243593 2.016337
v -3.999810 6.243593 2.016339
v 2.048917 6.243593 4.965568
v 2.048917 6.011897 4.965568
v -3.999810 6.011899 2.016339
v 2.048916 6.011899 2.016337
v -3.999810 6.011897 4.965568
vt 0.254811 0.346384
vt 0.254811 0.346384
vt 0.254811 0.346384
vt 0.254811 0.346384
vt 0.254811 0.346384
vt 0.254811 0.346384
vt 0.254811 0.346384
vt 0.254811 0.346384
vt 0.254811 0.346384
vt 0.254811 0.346384
vt 0.254811 0.346384
vt 0.254811 0.346384
vt 0.254811 0.346384
vt 0.254811 0.346384
vt 0.254811 0.346384
vt 0.254811 0.346384
vt 0.254811 0.346384
vt 0.254811 0.346384
vt 0.254811 0.346384
vt 0.254811 0.346384
vt 0.254811 0.346384
vt 0.254811 0.346384
vt 0.254811 0.346384
vt 0.254811 0.346384
vn -1.0000 -0.0000 0.0000
vn 1.0000 0.0000 -0.0000
vn -0.0000 0.0000 -1.0000
vn 0.0000 0.0000 1.0000
vn 0.0000 1.0000 0.0000
vn -0.0000 -1.0000 -0.0000
usemtl 1181.001
s off
f 85/85/34 86/86/34 87/87/34
f 85/85/34 88/88/34 86/86/34
f 89/89/35 90/90/35 91/91/35
f 89/89/35 92/92/35 90/90/35
f 93/93/36 94/94/36 95/95/36
f 93/93/36 96/96/36 94/94/36
f 97/97/37 98/98/37 99/99/37
f 97/97/37 100/100/37 98/98/37
f 101/101/38 102/102/38 103/103/38
f 101/101/38 104/104/38 102/102/38
f 105/105/39 106/106/39 107/107/39
f 105/105/39 108/108/39 106/106/39
o mesh_id195.001_mesh_id195.004_mesh_id195.001_mesh_id195.006
v -2.598913 6.238221 2.009681
v -14.031218 6.002533 2.009680
v -14.031218 6.238221 2.009680
v -2.598913 6.002533 2.009681
v -14.031218 6.238218 4.869526
v -2.598913 6.002531 4.869527
v -2.598913 6.238218 4.869527
v -14.031218 6.002531 4.869526
v -2.598913 6.238218 4.869527
v -2.598913 6.002533 2.009681
v -2.598913 6.238221 2.009681
v -2.598913 6.002531 4.869527
v -14.031218 6.238221 2.009680
v -14.031218 6.002531 4.869526
v -14.031218 6.238218 4.869526
v -14.031218 6.002533 2.009680
v -14.031218 6.238221 2.009680
v -2.598913 6.238218 4.869527
v -2.598913 6.238221 2.009681
v -14.031218 6.238218 4.869526
v -14.031218 6.002531 4.869526
v -2.598913 6.002533 2.009681
v -2.598913 6.002531 4.869527
v -14.031218 6.002533 2.009680
vt 0.254811 0.346384
vt 0.254811 0.346384
vt 0.254811 0.346384
vt 0.254811 0.346384
vt 0.254811 0.346384
vt 0.254811 0.346384
vt 0.254811 0.346384
vt 0.254811 0.346384
vt 0.254811 0.346384
vt 0.254811 0.346384
vt 0.254811 0.346384
vt 0.254811 0.346384
vt 0.254811 0.346384
vt 0.254811 0.346384
vt 0.254811 0.346384
vt 0.254811 0.346384
vt 0.254811 0.346384
vt 0.254811 0.346384
vt 0.254811 0.346384
vt 0.254811 0.346384
vt 0.254811 0.346384
vt 0.254811 0.346384
vt 0.254811 0.346384
vt 0.254811 0.346384
vn 0.0000 0.0000 -1.0000
vn -0.0000 0.0000 1.0000
vn 1.0000 0.0000 0.0000
vn -1.0000 0.0000 0.0000
vn -0.0000 1.0000 0.0000
vn 0.0000 -1.0000 -0.0000
usemtl 477.006
s off
f 109/109/40 110/110/40 111/111/40
f 109/109/40 112/112/40 110/110/40
f 113/113/41 114/114/41 115/115/41
f 113/113/41 116/116/41 114/114/41
f 117/117/42 118/118/42 119/119/42
f 117/117/42 120/120/42 118/118/42
f 121/121/43 122/122/43 123/123/43
f 121/121/43 124/124/43 122/122/43
f 125/125/44 126/126/44 127/127/44
f 125/125/44 128/128/44 126/126/44
f 129/129/45 130/130/45 131/131/45
f 129/129/45 132/132/45 130/130/45
o mesh_id35.001_mesh_id35.001_mesh_id35.001_mesh_id35.003
v -7.962335 7.325335 2.245432
v -10.675043 7.325344 -10.409048
v -10.540564 7.325337 2.020711
v -10.675043 7.325344 -10.409048
v -1.156404 7.325342 -8.030371
v -1.156404 7.325344 -10.409048
v -3.513998 7.325341 -5.607175
v -5.293755 7.325338 -0.086604
v -3.469876 7.325338 -2.151514
v -7.871982 7.325338 -0.042084
v -7.962335 7.325335 2.245432
v -7.827857 7.325338 1.212979
v -3.513998 7.325341 -5.607175
v -7.871982 7.325338 -0.042084
v -3.513998 7.325341 -5.607175
v -10.540564 6.026483 2.020711
v -10.675043 6.026489 -10.409049
v -7.962335 6.026483 2.245432
v -1.156404 6.026489 -10.409049
v -1.156404 6.026486 -8.030372
v -10.675043 6.026489 -10.409049
v -3.469876 6.026484 -2.151514
v -5.293755 6.026483 -0.086605
v -3.513998 6.026486 -5.607175
v -7.871982 6.026483 -0.042085
v -7.827857 6.026483 1.212979
v -7.962335 6.026483 2.245432
v -3.513998 6.026486 -5.607175
v -7.871982 6.026483 -0.042085
v -7.871982 6.026483 -0.042085
v -10.540564 7.325337 2.020711
v -10.675043 6.026489 -10.409049
v -10.540564 6.026483 2.020711
v -10.675043 7.325344 -10.409048
v -10.675043 7.325344 -10.409048
v -1.156404 6.026489 -10.409049
v -10.675043 6.026489 -10.409049
v -1.156404 7.325344 -10.409048
v -7.962335 7.325335 2.245432
v -10.540564 6.026483 2.020711
v -7.962335 6.026483 2.245432
v -10.540564 7.325337 2.020711
v -1.156404 7.325344 -10.409048
v -1.156404 6.026486 -8.030372
v -1.156404 6.026489 -10.409049
v -1.156404 7.325342 -8.030371
v -3.513998 6.026486 -5.607175
v -3.513998 7.325341 -5.607175
v -3.513998 7.325341 -5.607175
v -3.469876 6.026484 -2.151514
v -3.513998 6.026486 -5.607175
v -3.469876 7.325338 -2.151514
v -5.293755 6.026483 -0.086605
v -5.293755 7.325338 -0.086604
v -7.871982 6.026483 -0.042085
v -7.871982 7.325338 -0.042084
v -7.871982 7.325338 -0.042084
v -7.827857 6.026483 1.212979
v -7.871982 6.026483 -0.042085
v -7.827857 7.325338 1.212979
v -7.962335 6.026483 2.245432
v -7.962335 7.325335 2.245432
vt 0.586320 0.549609
vt 0.498174 0.999829
vt 0.642082 0.704200
vt 0.342436 0.032097
vt 0.403271 0.482304
vt 0.452501 0.407654
vt 0.000129 0.976205
vt 0.199011 0.902372
vt 0.099521 0.900544
vt 0.307296 0.950320
vt 0.366640 0.937279
vt 0.339330 0.938121
vt 0.318512 0.571299
vt 0.557599 0.606885
vt 0.368915 0.767675
vt 0.877255 0.636946
vt 0.997340 0.992701
vt 0.954122 0.545438
vt 0.674651 0.354762
vt 0.701097 0.424103
vt 0.964270 0.137017
vt 0.078785 0.642040
vt 0.175501 0.661417
vt 0.003926 0.547972
vt 0.292236 0.627038
vt 0.331988 0.627802
vt 0.365905 0.620607
vt 0.787577 0.527917
vt 0.999903 0.519596
vt 0.982006 0.617091
vt 0.642082 0.704200
vt 0.997340 0.992701
vt 0.877255 0.636946
vt 0.498174 0.999829
vt 0.342436 0.032097
vt 0.674651 0.354762
vt 0.964270 0.137017
vt 0.452501 0.407654
vt 0.586320 0.549609
vt 0.877255 0.636946
vt 0.954122 0.545438
vt 0.642082 0.704200
vt 0.452501 0.407654
vt 0.701097 0.424103
vt 0.674651 0.354762
vt 0.403271 0.482304
vt 0.787577 0.527917
vt 0.318512 0.571299
vt 0.000129 0.976205
vt 0.078785 0.642040
vt 0.003926 0.547972
vt 0.099521 0.900544
vt 0.175501 0.661417
vt 0.199011 0.902372
vt 0.292236 0.627038
vt 0.307296 0.950320
vt 0.307296 0.950320
vt 0.331988 0.627802
vt 0.292236 0.627038
vt 0.339330 0.938121
vt 0.365905 0.620607
vt 0.366640 0.937279
vn 0.0000 1.0000 0.0000
vn 0.0000 -1.0000 -0.0000
vn -0.9999 0.0000 0.0108
vn 0.0000 0.0000 -1.0000
vn -0.0868 -0.0000 0.9962
vn 1.0000 0.0000 0.0000
vn 0.9114 0.0000 0.4114
vn 0.9115 -0.0000 0.4112
vn 0.9409 -0.0000 0.3386
vn 0.8821 -0.0000 0.4711
vn 0.9254 -0.0000 0.3790
vn 0.9254 -0.0000 0.3791
vn 0.3955 -0.0000 0.9185
vn 0.3956 -0.0000 0.9184
vn 0.0173 -0.0000 0.9999
vn 0.9994 -0.0000 -0.0351
vn 0.9989 -0.0000 0.0472
vn 0.9916 0.0000 0.1292
usemtl 501.003
s off
f 133/133/46 134/134/46 135/135/46
f 136/136/46 137/137/46 138/138/46
f 139/139/46 140/140/46 141/141/46
f 139/139/46 142/142/46 140/140/46
f 142/142/46 143/143/46 144/144/46
f 136/136/46 145/145/46 137/137/46
f 134/134/46 146/146/46 147/147/46
f 134/134/46 133/133/46 146/146/46
f 148/148/47 149/149/47 150/150/47
f 151/151/47 152/152/47 153/153/47
f 154/154/47 155/155/47 156/156/47
f 155/155/47 157/157/47 156/156/47
f 158/158/47 159/159/47 157/157/47
f 152/152/47 160/160/47 153/153/47
f 160/160/47 161/161/47 153/153/47
f 162/162/47 150/150/47 149/149/47
f 163/163/48 164/164/48 165/165/48
f 163/163/48 166/166/48 164/164/48
f 167/167/49 168/168/49 169/169/49
f 167/167/49 170/170/49 168/168/49
f 171/171/50 172/172/50 173/173/50
f 171/171/50 174/174/50 172/172/50
s 1
f 175/175/51 176/176/52 177/177/51
f 175/175/51 178/178/53 176/176/52
f 178/178/53 179/179/54 176/176/52
f 178/178/53 180/180/54 179/179/54
f 181/181/55 182/182/56 183/183/55
f 181/181/55 184/184/57 182/182/56
f 184/184/57 185/185/58 182/182/56
f 184/184/57 186/186/59 185/185/58
f 186/186/59 187/187/60 185/185/58
f 186/186/59 188/188/60 187/187/60
f 189/189/61 190/190/62 191/191/61
f 189/189/61 192/192/62 190/190/62
f 192/192/62 193/193/63 190/190/62
f 192/192/62 194/194/63 193/193/63
