# Blender v3.2.0 OBJ File: ''
# www.blender.org
mtllib google.mtl
o polySurface3_Mesh.002
v 7.914048 4.611805 0.141795
v 7.923185 4.637202 0.123859
v 7.901806 4.627821 0.108388
v 7.891580 4.604094 0.119831
v 7.872532 4.607952 0.078084
v 7.872462 4.589354 0.100240
v 7.853954 4.579829 0.058266
v 7.860724 4.569183 0.087821
v 7.850500 4.539180 0.057212
v 7.859759 4.543267 0.088500
v 7.867140 4.505313 0.077675
v 7.870534 4.520556 0.101391
v 7.885821 4.485517 0.094883
v 7.886929 4.505975 0.118799
v 7.907560 4.495382 0.138161
v 7.907523 4.471276 0.113142
v 7.936543 4.466357 0.140675
v 7.932279 4.489434 0.159455
v 7.958138 4.488087 0.179526
v 7.960373 4.463878 0.159556
v 7.997417 4.469170 0.187859
v 7.986995 4.493834 0.200798
v 8.029467 4.487568 0.212810
v 8.013168 4.505790 0.218248
v 8.048268 4.514093 0.228502
v 8.030230 4.522986 0.229447
v 8.048479 4.544522 0.232653
v 8.030623 4.542949 0.232643
v 8.044101 4.576342 0.228987
v 8.025248 4.567693 0.230074
v 7.954138 4.610517 0.178508
v 7.981555 4.605578 0.198999
v 8.010441 4.591009 0.219065
v 8.035798 4.609429 0.216356
v 7.944704 4.578247 0.183452
v 7.904783 4.581834 0.146307
v 7.887522 4.579130 0.127048
v 7.874582 4.572269 0.111253
v 7.866914 4.562893 0.101175
v 7.868903 4.549775 0.105509
v 7.877907 4.539118 0.118043
v 7.892485 4.529483 0.134951
v 7.883948 4.557344 0.126657
v 7.875228 4.558979 0.114723
v 7.898510 4.554015 0.144002
v 7.911478 4.521647 0.153698
v 7.917490 4.548567 0.163238
v 7.932975 4.517201 0.172327
v 7.936904 4.546031 0.180133
v 7.932545 4.612192 0.159841
v 7.924022 4.580792 0.165535
v 7.957415 4.515697 0.190903
v 7.960338 4.544263 0.197570
v 7.969136 4.574688 0.201455
v 7.982802 4.518622 0.207840
v 7.984247 4.542805 0.212431
v 7.992948 4.566998 0.216434
v 8.011239 4.556819 0.225869
v 8.003643 4.541292 0.222306
v 8.004972 4.524402 0.220484
v 8.019984 4.547572 0.229365
v 8.015049 4.540865 0.227157
v 8.020715 4.532763 0.228340
v 7.906200 4.642118 0.095288
v 7.928130 4.651229 0.112503
v 7.875418 4.621906 0.064590
v 7.852374 4.587087 0.044110
v 7.851491 4.536638 0.044691
v 7.865318 4.501161 0.061377
v 7.884439 4.474804 0.082063
v 7.910326 4.459237 0.104425
v 7.938369 4.452236 0.129767
v 7.963404 4.450766 0.150856
v 8.003341 4.458274 0.183191
v 8.039630 4.478648 0.211672
v 8.061282 4.507944 0.230011
v 8.067945 4.544377 0.237084
v 8.066196 4.582510 0.231555
v 8.056487 4.616597 0.217599
v 8.034671 4.638035 0.197377
v 8.016931 4.626328 0.200184
v 8.012322 4.650445 0.177601
v 7.999514 4.635689 0.185574
v 7.943838 4.638517 0.143483
v 7.951666 4.654441 0.133855
v 7.967441 4.636652 0.164273
v 7.976646 4.654312 0.154330
v 7.983935 4.453158 0.167744
v 7.978833 4.465321 0.173948
v 7.972304 4.490707 0.190581
v 7.969912 4.517073 0.199679
v 7.972129 4.543520 0.205261
v 7.980854 4.570899 0.209269
v 7.995654 4.598479 0.209667
v 7.937765 4.659925 0.101345
v 7.911748 4.650116 0.077068
v 7.961750 4.663532 0.123222
v 7.985590 4.662092 0.146192
v 8.016291 4.656239 0.168871
v 8.044851 4.645214 0.187048
v 8.072749 4.621022 0.211334
v 8.088480 4.588478 0.230058
v 8.092734 4.543455 0.237191
v 8.080110 4.502888 0.228307
v 8.054733 4.471967 0.209055
v 8.021611 4.451869 0.183760
v 7.991892 4.443536 0.161143
v 7.970763 4.438567 0.138913
v 7.946246 4.439314 0.115917
v 7.917591 4.447067 0.089554
v 7.888762 4.463868 0.062951
v 7.863590 4.492315 0.038431
v 7.848299 4.537195 0.022750
v 7.857553 4.590746 0.026122
v 7.882860 4.628365 0.048000
v 7.977340 4.661885 0.107383
v 7.954522 4.657756 0.086870
v 7.998891 4.662958 0.131227
v 8.024084 4.657680 0.155448
v 8.051543 4.645030 0.172759
v 8.081612 4.620117 0.193821
v 8.102129 4.586412 0.210515
v 8.108884 4.546506 0.214960
v 8.098434 4.504601 0.207654
v 8.075047 4.472464 0.191102
v 8.043855 4.450399 0.166030
v 8.012064 4.439247 0.139936
v 7.989618 4.436440 0.121056
v 7.964053 4.438701 0.097386
v 7.935942 4.447650 0.071600
v 7.907179 4.465976 0.045494
v 7.887701 4.495485 0.023181
v 7.879661 4.537010 0.010661
v 7.885873 4.581463 0.014656
v 7.906761 4.619504 0.034292
v 7.932196 4.646210 0.062985
v 7.898709 4.575231 0.015987
v 7.926057 4.607609 0.034623
v 7.955737 4.639117 0.066321
v 7.969666 4.645269 0.079625
v 7.989967 4.645076 0.093727
v 8.012726 4.647575 0.116250
v 8.036081 4.642416 0.136604
v 8.061038 4.630943 0.159171
v 8.079025 4.613228 0.171502
v 8.098907 4.582939 0.189543
v 8.106623 4.552094 0.199679
v 8.098100 4.512208 0.190879
v 8.080958 4.485229 0.176931
v 8.051780 4.463383 0.150917
v 8.018484 4.450548 0.124026
v 8.004119 4.449372 0.111013
v 7.980088 4.451830 0.088939
v 7.952153 4.459659 0.065100
v 7.917481 4.479109 0.037641
v 7.897561 4.498032 0.023258
v 7.889131 4.538480 0.011899
vt 0.631678 0.520277
vt 0.627147 0.541164
vt 0.612669 0.535062
vt 0.613486 0.517734
vt 0.597227 0.512085
vt 0.588939 0.526613
vt 0.585637 0.503726
vt 0.571696 0.515127
vt 0.580474 0.490397
vt 0.563155 0.495819
vt 0.582840 0.474900
vt 0.566257 0.472956
vt 0.570944 0.455690
vt 0.590063 0.460801
vt 0.577541 0.438622
vt 0.600126 0.446442
vt 0.593258 0.419852
vt 0.614077 0.432174
vt 0.797912 0.436128
vt 0.794112 0.456519
vt 0.776001 0.448474
vt 0.781624 0.427439
vt 0.809832 0.443493
vt 0.803306 0.462144
vt 0.821311 0.451231
vt 0.838971 0.469405
vt 0.827705 0.479256
vt 0.812533 0.467403
vt 0.847375 0.487446
vt 0.836411 0.491323
vt 0.835237 0.502544
vt 0.845191 0.504502
vt 0.830626 0.516058
vt 0.840822 0.522116
vt 0.820228 0.529563
vt 0.834766 0.541589
vt 0.646571 0.519459
vt 0.642585 0.496087
vt 0.658792 0.492264
vt 0.663500 0.518266
vt 0.612387 0.501408
vt 0.627140 0.499698
vt 0.600266 0.500537
vt 0.592095 0.497568
vt 0.591811 0.489576
vt 0.597267 0.480436
vt 0.606363 0.469874
vt 0.599554 0.492389
vt 0.607111 0.488683
vt 0.618699 0.482539
vt 0.618235 0.458737
vt 0.632614 0.474281
vt 0.632540 0.448854
vt 0.647236 0.468428
vt 0.790600 0.476404
vt 0.772771 0.471069
vt 0.789793 0.496635
vt 0.772298 0.494074
vt 0.775399 0.519742
vt 0.793648 0.518199
vt 0.800530 0.539771
vt 0.780649 0.545463
vt 0.799055 0.479818
vt 0.798108 0.497609
vt 0.802027 0.516177
vt 0.810484 0.534420
vt 0.822664 0.509162
vt 0.810358 0.514261
vt 0.818993 0.499468
vt 0.806352 0.498482
vt 0.807491 0.482967
vt 0.821122 0.489534
vt 0.828649 0.504424
vt 0.826119 0.500219
vt 0.830081 0.496036
vt 0.622707 0.552504
vt 0.607797 0.546408
vt 0.583678 0.536647
vt 0.565622 0.521458
vt 0.556213 0.497467
vt 0.556492 0.475220
vt 0.560591 0.454527
vt 0.568311 0.434484
vt 0.580020 0.414623
vt 0.785602 0.415481
vt 0.802051 0.426470
vt 0.814840 0.435696
vt 0.826340 0.444810
vt 0.846119 0.465441
vt 0.855558 0.485435
vt 0.856312 0.505637
vt 0.853470 0.526144
vt 0.847216 0.545625
vt 0.822632 0.553706
vt 0.833930 0.560973
vt 0.811253 0.562177
vt 0.819777 0.572948
vt 0.643868 0.542488
vt 0.641103 0.556021
vt 0.662994 0.543275
vt 0.660383 0.559928
vt 0.795881 0.583319
vt 0.788569 0.568708
vt 0.619572 0.562971
vt 0.599481 0.556427
vt 0.638413 0.567183
vt 0.658283 0.570276
vt 0.822282 0.579422
vt 0.802300 0.591419
vt 0.840318 0.568509
vt 0.857047 0.549861
vt 0.866303 0.530014
vt 0.870343 0.506727
vt 0.866838 0.484082
vt 0.855921 0.462676
vt 0.838356 0.443193
vt 0.820982 0.429148
vt 0.808312 0.416200
vt 0.792851 0.403339
vt 0.555389 0.430595
vt 0.565340 0.408605
vt 0.546699 0.453671
vt 0.542154 0.477860
vt 0.545176 0.503427
vt 0.556890 0.527804
vt 0.576311 0.545151
vt 0.633868 0.580844
vt 0.614919 0.576022
vt 0.654000 0.583851
vt 0.827574 0.587557
vt 0.811660 0.601770
vt 0.846038 0.575959
vt 0.866031 0.556810
vt 0.879365 0.533846
vt 0.885905 0.509701
vt 0.882977 0.482174
vt 0.871756 0.457715
vt 0.854158 0.435056
vt 0.834846 0.416649
vt 0.820879 0.405129
vt 0.804813 0.390742
vt 0.539860 0.426260
vt 0.547555 0.403509
vt 0.531560 0.452285
vt 0.525817 0.478980
vt 0.527711 0.509095
vt 0.541237 0.536757
vt 0.564865 0.558403
vt 0.593421 0.570048
vt 0.557738 0.569586
vt 0.533676 0.540698
vt 0.596849 0.584490
vt 0.611974 0.588351
vt 0.627599 0.595221
vt 0.648247 0.599720
vt 0.840292 0.598940
vt 0.824937 0.612380
vt 0.858653 0.581587
vt 0.873808 0.567412
vt 0.889703 0.540665
vt 0.894337 0.514209
vt 0.893706 0.481413
vt 0.883901 0.455953
vt 0.865773 0.428090
vt 0.842310 0.406990
vt 0.832716 0.397824
vt 0.817356 0.383195
vt 0.527410 0.421886
vt 0.534021 0.398624
vt 0.520317 0.455373
vt 0.520292 0.478231
vt 0.522835 0.511638
vn -0.6529 0.5614 0.5084
vn -0.7684 0.5020 0.3970
vn -0.8845 0.3476 0.3111
vn -0.7683 0.5021 0.3970
vn -0.9634 0.0625 0.2606
vn -0.8845 0.3475 0.3111
vn -0.9153 -0.2646 0.3035
vn -0.8117 -0.4279 0.3975
vn -0.7197 -0.5048 0.4766
vn -0.8117 -0.4280 0.3975
vn -0.6143 -0.5657 0.5501
vn -0.5298 -0.5800 0.6188
vn -0.4342 -0.5728 0.6953
vn -0.4255 -0.5700 0.7029
vn -0.5298 -0.5799 0.6188
vn -0.5298 -0.5799 0.6189
vn -0.3023 -0.5283 0.7934
vn -0.3023 -0.5284 0.7934
vn -0.1627 -0.4166 0.8944
vn -0.0036 -0.1442 0.9895
vn -0.1628 -0.4167 0.8944
vn -0.0013 0.1094 0.9940
vn -0.1273 0.3386 0.9323
vn -0.0013 0.1093 0.9940
vn -0.6355 0.3002 0.7113
vn -0.6367 0.3005 0.7102
vn -0.6083 0.2947 0.7370
vn -0.7228 0.3075 0.6189
vn -0.6529 0.5615 0.5084
vn -0.7900 0.2741 0.5484
vn -0.7683 0.5021 0.3969
vn -0.8551 0.1962 0.4799
vn -0.7683 0.5020 0.3970
vn -0.8845 0.3475 0.3112
vn -0.8922 0.0344 0.4503
vn -0.9634 0.0625 0.2605
vn -0.8534 -0.1192 0.5075
vn -0.8922 0.0344 0.4504
vn -0.7938 -0.2030 0.5732
vn -0.9153 -0.2646 0.3036
vn -0.7932 0.1187 0.5973
vn -0.7228 0.3074 0.6189
vn -0.7932 0.1187 0.5972
vn -0.8534 -0.1191 0.5075
vn -0.7939 -0.2030 0.5732
vn -0.7694 -0.0461 0.6371
vn -0.7295 -0.2631 0.6313
vn -0.7189 -0.0812 0.6903
vn -0.6610 -0.3042 0.6860
vn -0.6143 -0.5657 0.5502
vn -0.6624 -0.1123 0.7407
vn -0.6366 0.3005 0.7102
vn -0.6355 0.3003 0.7113
vn -0.6083 0.2947 0.7369
vn -0.6142 -0.5657 0.5502
vn -0.5878 -0.3247 0.7410
vn -0.6610 -0.3043 0.6859
vn -0.5878 -0.3248 0.7410
vn -0.6018 -0.1270 0.7885
vn -0.6624 -0.1124 0.7407
vn -0.6623 -0.1124 0.7407
vn -0.5893 0.0635 0.8054
vn -0.5421 0.2804 0.7921
vn -0.5076 -0.3228 0.7989
vn -0.5877 -0.3248 0.7410
vn -0.5075 -0.3228 0.7989
vn -0.5337 -0.1322 0.8353
vn -0.5239 0.0433 0.8507
vn -0.4653 0.2412 0.8517
vn -0.3864 0.1713 0.9063
vn -0.4521 0.0156 0.8918
vn -0.4612 -0.1356 0.8769
vn -0.4612 -0.1357 0.8769
vn -0.3007 0.0451 0.9526
vn -0.3904 -0.0189 0.9205
vn -0.3007 0.0450 0.9527
vn -0.3883 -0.1320 0.9120
vn -0.3903 -0.0188 0.9205
vn -0.4611 -0.1356 0.8769
vn -0.3007 0.0450 0.9526
vn -0.1628 -0.4166 0.8944
vn -0.3884 -0.1320 0.9120
vn -0.6244 0.6181 0.4776
vn -0.6243 0.6182 0.4776
vn -0.7476 0.5471 0.3765
vn -0.8736 0.4051 0.2696
vn -0.8736 0.4051 0.2695
vn -0.9984 0.0474 0.0304
vn -0.8845 0.3476 0.3112
vn -0.9302 -0.3507 0.1083
vn -0.8445 -0.4337 0.3143
vn -0.8445 -0.4336 0.3143
vn -0.7219 -0.4990 0.4795
vn -0.6321 -0.5335 0.5619
vn -0.6142 -0.5657 0.5501
vn -0.7197 -0.5049 0.4766
vn -0.6322 -0.5334 0.5620
vn -0.5554 -0.5489 0.6247
vn -0.4618 -0.5507 0.6953
vn -0.5298 -0.5800 0.6189
vn -0.3024 -0.5283 0.7934
vn -0.3352 -0.5051 0.7953
vn -0.3352 -0.5052 0.7953
vn -0.2513 -0.3645 0.8966
vn -0.2045 -0.1416 0.9686
vn -0.2046 -0.1416 0.9686
vn -0.1808 0.1126 0.9770
vn -0.1823 0.3192 0.9300
vn -0.2281 0.5320 0.8154
vn -0.2855 0.6254 0.7262
vn -0.2281 0.5320 0.8155
vn -0.5662 0.6211 0.5419
vn -0.5661 0.6211 0.5419
vn -0.4977 0.6111 0.6155
vn -0.2855 0.6255 0.7261
vn -0.4341 -0.5728 0.6953
vn -0.4255 -0.5699 0.7030
vn -0.4652 0.2412 0.8517
vn -0.6244 0.6182 0.4775
vn -0.5106 0.8338 0.2099
vn -0.5662 0.6211 0.5420
vn -0.4140 0.8519 0.3207
vn -0.3408 0.8443 0.4135
vn -0.2244 0.8359 0.5009
vn -0.0253 0.8350 0.5496
vn -0.2244 0.8359 0.5010
vn 0.0894 0.7437 0.6626
vn -0.1809 0.1126 0.9770
vn 0.0556 0.4567 0.8879
vn 0.0894 0.7436 0.6626
vn 0.0129 0.1514 0.9884
vn 0.0078 -0.2048 0.9788
vn 0.0130 0.1514 0.9884
vn -0.2513 -0.3645 0.8967
vn -0.0605 -0.4941 0.8673
vn -0.2042 -0.6372 0.7432
vn -0.2931 -0.7175 0.6319
vn -0.3866 -0.7396 0.5509
vn -0.2932 -0.7175 0.6318
vn -0.4525 -0.7575 0.4705
vn -0.5553 -0.5489 0.6247
vn -0.6321 -0.5335 0.5620
vn -0.5385 -0.7545 0.3752
vn -0.6322 -0.5335 0.5620
vn -0.6535 -0.7107 0.2604
vn -0.7218 -0.4990 0.4795
vn -0.8346 -0.5165 0.1915
vn -0.9471 -0.2805 0.1556
vn -0.8345 -0.5166 0.1915
vn -0.9984 0.0473 0.0304
vn -0.9944 0.0980 -0.0392
vn -0.7938 0.5971 -0.1150
vn -0.7476 0.5471 0.3766
vn -0.0258 0.9881 -0.1519
vn -0.3408 0.8444 0.4134
vn 0.0174 0.9998 -0.0090
vn 0.0796 0.9870 0.1394
vn -0.3408 0.8443 0.4134
vn 0.2787 0.9417 0.1884
vn 0.0797 0.9870 0.1394
vn 0.5204 0.8234 0.2263
vn 0.2787 0.9418 0.1883
vn -0.0253 0.8351 0.5496
vn 0.0894 0.7437 0.6625
vn 0.7087 0.5925 0.3830
vn 0.5204 0.8234 0.2264
vn 0.7985 0.1818 0.5739
vn 0.7548 -0.3232 0.5708
vn 0.5310 -0.6900 0.4919
vn -0.0605 -0.4942 0.8673
vn -0.2042 -0.6372 0.7431
vn 0.2896 -0.8830 0.3694
vn 0.1031 -0.9616 0.2545
vn -0.2931 -0.7176 0.6318
vn 0.0119 -0.9847 0.1736
vn -0.3866 -0.7396 0.5510
vn -0.0670 -0.9977 0.0076
vn -0.4525 -0.7576 0.4705
vn -0.1509 -0.9773 -0.1487
vn -0.2520 -0.9095 -0.3307
vn -0.3520 -0.7372 -0.5767
vn -0.8346 -0.5166 0.1915
vn -0.3925 -0.3794 -0.8378
vn -0.9471 -0.2806 0.1556
vn -0.3471 0.1246 -0.9295
vn -0.9944 0.0979 -0.0391
vn -0.1937 0.5602 -0.8054
vn -0.9944 0.0980 -0.0391
vn -0.7939 0.5971 -0.1151
vn -0.1218 0.8138 -0.5682
vn -0.7938 0.5971 -0.1151
vn 0.2358 0.3344 -0.9124
vn -0.3471 0.1247 -0.9295
vn -0.1936 0.5602 -0.8054
vn 0.3036 0.5323 -0.7902
vn 0.2358 0.3343 -0.9125
vn 0.2984 0.7157 -0.6315
vn 0.3736 0.7468 -0.5503
vn -0.0258 0.9881 -0.1518
vn 0.4296 0.7711 -0.4699
vn 0.3736 0.7467 -0.5503
vn -0.0257 0.9881 -0.1519
vn 0.4913 0.7984 -0.3481
vn 0.4296 0.7711 -0.4700
vn 0.0796 0.9870 0.1393
vn 0.5786 0.7576 -0.3022
vn 0.4914 0.7983 -0.3481
vn 0.7311 0.6410 -0.2338
vn 0.8744 0.4321 -0.2208
vn 0.9756 0.1712 -0.1376
vn 0.8743 0.4322 -0.2208
vn 0.7985 0.1818 0.5738
vn 0.7985 0.1817 0.5739
vn 0.7547 -0.3232 0.5709
vn 0.9683 -0.1935 -0.1580
vn 0.8517 -0.4949 -0.1724
vn 0.9683 -0.1934 -0.1580
vn 0.5310 -0.6899 0.4919
vn 0.7005 -0.6665 -0.2550
vn 0.8517 -0.4950 -0.1723
vn 0.5310 -0.6899 0.4920
vn 0.2895 -0.8830 0.3694
vn 0.5553 -0.7599 -0.3381
vn 0.7006 -0.6665 -0.2550
vn 0.2896 -0.8830 0.3695
vn 0.0120 -0.9847 0.1736
vn 0.4352 -0.8058 -0.4017
vn 0.5553 -0.7598 -0.3381
vn 0.3759 -0.7872 -0.4888
vn -0.1509 -0.9773 -0.1488
vn 0.3041 -0.7439 -0.5950
vn 0.3759 -0.7873 -0.4888
vn 0.2247 -0.6509 -0.7251
vn 0.1037 -0.5457 -0.8315
vn 0.2247 -0.6509 -0.7252
vn -0.2519 -0.9095 -0.3308
vn 0.1184 -0.2557 -0.9595
vn -0.3521 -0.7372 -0.5767
vn 0.2358 0.3344 -0.9125
usemtl lambert3
s 1
f 1/1/1 2/2/1 3/3/1 4/4/1
f 6/5/2 4/4/1 3/3/1 5/6/2
f 8/7/3 6/5/4 5/6/4 7/8/3
f 10/9/5 8/7/6 7/8/3 9/10/5
f 12/11/7 10/9/5 9/10/5 11/12/7
f 12/11/7 11/12/7 13/13/8 14/14/8
f 16/15/9 15/16/9 14/14/10 13/13/10
f 16/15/9 17/17/11 18/18/11 15/16/9
f 20/19/12 19/20/12 18/21/11 17/22/11
f 89/23/13 90/24/14 19/20/15 20/19/16
f 21/25/17 23/26/17 24/27/17 22/28/17
f 23/26/18 25/29/19 26/30/19 24/27/17
f 28/31/20 26/30/19 25/29/21 27/32/20
f 30/33/22 28/31/20 27/32/20 29/34/22
f 33/35/23 30/33/24 29/34/22 34/36/23
f 50/37/25 51/38/26 35/39/27 31/40/27
f 37/41/28 36/42/28 1/1/1 4/4/29
f 38/43/30 37/41/28 4/4/1 6/5/31
f 39/44/32 38/43/30 6/5/33 8/7/34
f 40/45/35 39/44/32 8/7/34 10/9/36
f 10/9/5 12/11/7 41/46/37 40/45/38
f 42/47/39 41/46/37 12/11/40 14/14/10
f 44/48/41 43/49/41 37/41/42 38/43/30
f 39/44/32 40/45/38 44/48/41 38/43/30
f 41/46/37 43/49/43 44/48/43 40/45/35
f 43/49/43 41/46/44 42/47/45 45/50/46
f 36/42/42 37/41/42 43/49/41 45/50/46
f 14/14/8 15/16/9 46/51/47 42/47/39
f 45/50/46 42/47/45 46/51/47 47/52/48
f 48/53/49 46/51/47 15/16/9 18/18/50
f 48/53/49 49/54/51 47/52/48 46/51/47
f 36/42/28 51/38/52 50/37/53 1/1/1
f 47/52/48 51/38/26 36/42/42 45/50/46
f 51/38/26 47/52/48 49/54/51 35/39/54
f 18/21/55 19/20/12 52/55/56 48/56/49
f 48/56/57 52/55/58 53/57/59 49/58/60
f 35/59/27 49/58/61 53/57/59 54/60/62
f 54/60/62 32/61/63 31/62/54 35/59/54
f 19/20/12 90/24/14 91/63/64 52/55/65
f 91/63/66 92/64/67 53/57/59 52/55/56
f 92/64/67 93/65/68 54/60/62 53/57/59
f 93/65/68 94/66/69 32/61/63 54/60/62
f 58/67/70 30/33/22 33/35/23 57/68/70
f 59/69/71 58/67/70 57/68/70 56/70/71
f 55/71/72 60/72/72 59/69/71 56/70/71
f 60/72/73 55/71/73 22/28/17 24/27/18
f 58/67/70 61/73/74 28/31/20 30/33/22
f 58/67/70 59/69/71 62/74/75 61/73/76
f 60/72/72 63/75/77 62/74/78 59/69/71
f 63/75/77 60/72/79 24/27/17 26/30/19
f 61/73/80 62/74/75 63/75/77 28/31/20
f 26/30/81 28/31/20 63/75/82
f 65/76/83 64/77/83 3/3/1 2/2/1
f 64/77/84 66/78/85 5/6/4 3/3/29
f 7/8/34 5/6/2 66/78/85 67/79/86
f 67/79/87 68/80/88 9/10/5 7/8/89
f 68/80/88 69/81/90 11/12/40 9/10/5
f 69/81/90 70/82/91 13/13/10 11/12/7
f 70/82/92 71/83/93 16/15/9 13/13/10
f 71/83/93 72/84/94 17/17/95 16/15/96
f 72/85/97 73/86/98 20/19/16 17/22/50
f 88/87/99 89/23/13 20/19/100 73/86/98
f 23/26/101 21/25/101 74/88/102 75/89/102
f 25/29/81 23/26/17 75/89/103 76/90/104
f 27/32/20 25/29/19 76/90/104 77/91/105
f 77/91/106 78/92/107 29/34/22 27/32/20
f 78/92/107 79/93/108 34/36/23 29/34/22
f 81/94/109 34/36/23 79/93/108 80/95/109
f 83/96/110 81/94/109 80/95/111 82/97/110
f 2/2/1 84/98/112 85/99/112 65/76/83
f 84/98/113 86/100/114 87/101/114 85/99/112
f 82/97/110 87/102/114 86/103/114 83/96/110
f 50/37/53 84/98/112 2/2/29 1/1/1
f 31/40/54 86/100/114 84/98/112 50/37/53
f 83/96/115 86/103/114 31/62/54 32/61/63
f 21/25/17 89/23/13 88/87/99 74/88/102
f 22/28/17 90/24/14 89/23/116 21/25/17
f 91/63/64 90/24/117 22/28/101 55/71/72
f 55/71/72 56/70/71 92/64/67 91/63/64
f 56/70/71 57/68/70 93/65/68 92/64/67
f 57/68/70 33/35/23 94/66/118 93/65/68
f 83/96/115 32/61/63 94/66/118 81/94/109
f 33/35/23 34/36/23 81/94/109 94/66/69
f 64/77/84 65/76/119 95/104/120 96/105/120
f 65/76/84 85/99/121 97/106/122 95/104/120
f 98/107/123 97/106/122 85/99/121 87/101/114
f 99/108/124 98/109/123 87/102/114 82/97/115
f 100/110/125 99/108/126 82/97/110 80/95/109
f 101/111/127 100/110/125 80/95/109 79/93/108
f 79/93/108 78/92/128 102/112/129 101/111/130
f 103/113/131 102/112/129 78/92/107 77/91/106
f 104/114/132 103/113/133 77/91/105 76/90/134
f 105/115/135 104/114/132 76/90/134 75/89/102
f 106/116/136 105/115/135 75/89/102 74/88/102
f 74/88/102 88/87/99 107/117/137 106/116/136
f 108/118/138 107/117/139 88/87/99 73/86/98
f 109/119/140 108/118/138 73/86/141 72/85/142
f 110/120/143 109/121/140 72/84/144 71/83/93
f 111/122/145 110/120/143 71/83/146 70/82/92
f 70/82/92 69/81/90 112/123/147 111/122/145
f 113/124/148 112/123/149 69/81/90 68/80/150
f 68/80/88 67/79/86 114/125/151 113/124/148
f 115/126/152 114/125/151 67/79/87 66/78/85
f 66/78/153 64/77/83 96/105/120 115/126/152
f 95/104/120 97/106/122 116/127/154 117/128/154
f 97/106/122 98/107/155 118/129/156 116/127/154
f 119/130/157 118/131/156 98/109/158 99/108/126
f 120/132/159 119/130/160 99/108/126 100/110/125
f 121/133/161 120/132/162 100/110/163 101/111/164
f 122/134/165 121/133/166 101/111/127 102/112/129
f 123/135/167 122/134/165 102/112/129 103/113/131
f 124/136/168 123/135/167 103/113/133 104/114/132
f 125/137/169 124/136/168 104/114/132 105/115/170
f 105/115/170 106/116/171 126/138/172 125/137/169
f 127/139/173 126/138/172 106/116/171 107/117/174
f 108/118/138 128/140/175 127/139/173 107/117/174
f 108/118/176 109/119/140 129/141/177 128/140/175
f 109/121/178 110/120/143 130/142/179 129/143/177
f 131/144/180 130/142/179 110/120/143 111/122/145
f 132/145/181 131/144/180 111/122/145 112/123/182
f 133/146/183 132/145/181 112/123/147 113/124/184
f 134/147/185 133/146/183 113/124/148 114/125/186
f 135/148/187 134/147/185 114/125/188 115/126/189
f 136/149/190 135/148/187 115/126/191 96/105/120
f 96/105/120 95/104/120 117/128/154 136/149/190
f 138/150/192 137/151/192 134/147/193 135/148/194
f 139/152/195 138/150/196 135/148/187 136/149/190
f 140/153/197 139/152/195 136/149/190 117/128/154
f 141/154/198 140/153/197 117/128/199 116/127/154
f 142/155/200 141/154/201 116/127/202 118/129/156
f 143/156/203 142/157/204 118/131/156 119/130/157
f 119/130/205 120/132/159 144/158/206 143/156/207
f 145/159/208 144/158/206 120/132/159 121/133/166
f 146/160/209 145/159/208 121/133/161 122/134/165
f 147/161/210 146/160/211 122/134/165 123/135/212
f 123/135/213 124/136/214 148/162/215 147/161/210
f 149/163/216 148/162/217 124/136/214 125/137/218
f 150/164/219 149/163/220 125/137/221 126/138/222
f 151/165/223 150/164/224 126/138/225 127/139/173
f 128/140/226 152/166/227 151/165/228 127/139/173
f 153/167/229 152/166/227 128/140/175 129/141/177
f 129/143/177 130/142/230 154/168/231 153/169/232
f 155/170/233 154/168/231 130/142/230 131/144/180
f 156/171/234 155/170/235 131/144/236 132/145/181
f 157/172/237 156/171/234 132/145/238 133/146/183
f 133/146/183 134/147/185 137/151/239 157/172/237
