# Blender v3.2.0 OBJ File: 'amongus.blend'
# www.blender.org
mtllib lemari1.mtl
o mesh_id95
v -5.871376 4.667378 -5.927242
v -10.359680 3.852756 -5.927242
v -10.359680 4.667378 -5.927242
v -5.871376 3.852756 -5.927242
v -10.359680 4.667378 -4.775766
v -5.871376 3.852756 -4.775766
v -5.871376 4.667378 -4.775766
v -10.359680 3.852756 -4.775766
v -5.871376 4.667378 -4.775766
v -5.871376 3.852756 -5.927242
v -5.871376 4.667378 -5.927242
v -5.871376 3.852756 -4.775766
v -10.359680 4.667378 -5.927242
v -10.359680 3.852756 -4.775766
v -10.359680 4.667378 -4.775766
v -10.359680 4.667378 -5.927242
v -10.359680 3.852756 -5.927242
v -10.359680 3.852756 -4.775766
v -10.359680 4.667378 -5.927242
v -5.871376 4.667378 -4.775766
v -5.871376 4.667378 -5.927242
v -10.359680 4.667378 -5.927242
v -10.359680 4.667378 -4.775766
v -5.871376 4.667378 -4.775766
v -10.359680 3.852756 -4.775766
v -5.871376 3.852756 -5.927242
v -5.871376 3.852756 -4.775766
v -10.359680 3.852756 -5.927242
vt 0.254811 0.346384
vt 0.470014 0.139387
vt 0.000114 0.000147
vt 0.492690 0.365164
vt 0.629882 0.751982
vt 0.341395 0.994097
vt 0.723618 0.999835
vt 0.402116 0.616684
vt 0.222461 0.671261
vt 0.492690 0.365164
vt 0.254811 0.346384
vt 0.667834 0.526823
vt 0.863118 0.556320
vt 0.402116 0.616684
vt 0.629882 0.751982
vt 0.000114 0.000147
vt 0.470014 0.139387
vt 0.863545 0.021316
vt 0.000114 0.000147
vt 0.222461 0.671261
vt 0.254811 0.346384
vt 0.863118 0.556320
vt 0.629882 0.751982
vt 0.723618 0.999835
vt 0.863545 0.021316
vt 0.492690 0.365164
vt 0.667834 0.526823
vt 0.470014 0.139387
vn 0.0000 0.0000 -1.0000
vn 0.0000 0.0000 1.0000
vn 1.0000 0.0000 0.0000
vn -1.0000 0.0000 0.0000
vn 0.0000 1.0000 0.0000
vn 0.0000 -1.0000 0.0000
usemtl 447
s off
f 1/1/1 2/2/1 3/3/1
f 1/1/1 4/4/1 2/2/1
f 5/5/2 6/6/2 7/7/2
f 5/5/2 8/8/2 6/6/2
f 9/9/3 10/10/3 11/11/3
f 9/9/3 12/12/3 10/10/3
f 13/13/4 14/14/4 15/15/4
f 16/16/4 17/17/4 18/18/4
f 19/19/5 20/20/5 21/21/5
f 22/22/5 23/23/5 24/24/5
f 25/25/6 26/26/6 27/27/6
f 25/25/6 28/28/6 26/26/6
